<svg width="160" height="33" viewBox="0 0 160 33" fill="none" xmlns="http://www.w3.org/2000/svg">
<path d="M157.758 10.6081C156.302 9.00939 154.391 8.11914 152.342 8.11914H147.777H147.761C147.039 8.14394 146.482 8.70831 146.482 9.41732C146.482 9.41732 146.482 24.7032 146.482 25.1035C146.86 25.1035 152.343 25.1035 152.343 25.1035C154.384 25.1035 156.303 24.2221 157.759 22.6057C159.211 20.9994 160 18.8753 160 16.6148C160 14.3402 159.211 12.2156 157.758 10.6081ZM155.082 19.8612C154.402 20.9763 153.425 21.3677 152.414 21.3677H150.462V11.8608H150.674H152.414C154.976 11.8608 155.9 14.4388 155.9 16.6148C155.9 17.9325 155.523 19.1274 155.082 19.8612Z" fill="#3D3D3D"/>
<path d="M61.2648 29.2737C61.2648 29.2737 69.5809 8.68058 69.8083 8.11975C69.2822 8.11975 66.6107 8.11975 66.6107 8.11975C65.4427 8.11975 64.8608 8.99287 64.7319 9.3884L61.2167 17.8534L57.7881 9.3884C57.5049 8.62685 56.8089 8.11975 56.0085 8.11975C56.0085 8.11975 53.1232 8.11975 52.5781 8.11975C52.8055 8.67645 58.9638 23.7811 58.9638 23.7811C58.9638 23.7811 55.5044 32.438 55.2704 33L56.1575 32.9835C58.5256 32.7987 60.1508 31.8795 61.2648 29.2737Z" fill="#3D3D3D"/>
<path d="M46.6302 7.45911C41.2177 7.45911 36.9875 11.2586 36.9875 16.7701C36.9875 21.9528 41.2552 25.7186 46.3654 25.7186C47.8386 25.7186 49.3053 25.4311 50.6579 24.7569V20.4958C49.8515 21.2213 48.6806 21.6157 47.5957 21.6157C44.7781 21.6157 41.8769 20.18 41.8769 16.5593C41.8769 13.4476 44.5121 11.5904 47.3528 11.5904C47.7056 11.5904 48.2394 11.6795 48.2394 11.6795C48.3694 11.7073 48.5333 11.7161 48.6806 11.7297C49.8729 11.7527 50.6579 10.4947 50.6579 9.54246V8.52528C49.4341 7.85169 48.0369 7.45911 46.6302 7.45911Z" fill="#3D3D3D"/>
<path d="M134.286 25.0976C134.268 25.0976 134.268 25.0976 134.25 25.0976C133.292 25.0976 132.501 24.3207 132.501 23.3637C132.501 23.3637 132.492 8.5377 132.492 8.11914C132.861 8.11914 135.396 8.11914 135.396 8.11914C136.116 8.11914 136.688 8.70831 136.688 9.41732V21.5437H143.063C143.661 21.5437 144.151 22.0407 144.151 22.6423V25.0633L134.286 25.0976Z" fill="#3D3D3D"/>
<path d="M113.167 16.5399C113.167 21.624 109.018 25.7488 103.889 25.7488C98.7654 25.7488 94.6189 21.6246 94.6189 16.5399C94.6189 11.4281 98.7654 7.31628 103.889 7.31628C109.018 7.31628 113.167 11.4281 113.167 16.5399ZM103.889 11.6223C101.171 11.6223 98.9512 13.8326 98.9512 16.5399C98.9512 19.2449 101.171 21.4398 103.889 21.4398C106.599 21.4398 108.821 19.2449 108.821 16.5399C108.82 13.8326 106.599 11.6223 103.889 11.6223Z" fill="#3D3D3D"/>
<path d="M82.9966 8.11974C83.0833 8.38421 86.5291 17.1769 86.5291 17.1769L86.7161 16.678L89.5105 9.47576C89.7629 8.90667 90.6227 8.11914 91.4059 8.11914C91.4059 8.11914 94.078 8.11914 94.6177 8.11914C94.1855 9.14162 94.3042 8.89898 87.9761 24.3142C87.972 24.3142 87.972 24.3201 87.972 24.3201V24.3284C87.7523 24.7758 87.3046 25.0976 86.7767 25.0976C86.7767 25.0976 85.5653 25.0976 85.3177 25.0976C85.2833 24.9748 85.0844 24.5497 82.1409 17.521C82.1409 17.521 79.0728 24.8561 78.9653 25.0976C78.723 25.0976 77.5194 25.0976 77.5194 25.0976C76.9838 25.0976 76.5301 24.7758 76.3342 24.3284V24.3201C76.3241 24.3142 76.3241 24.3142 76.3205 24.2776L70.5999 10.1901C70.5441 10.0271 70.5007 9.84178 70.5007 9.64814C70.5007 8.80689 71.1955 8.11974 72.0185 8.11974H74.1924C74.7493 9.5165 78.02 17.6214 78.02 17.6214L80.1119 12.1589C80.1119 12.1589 79.7699 11.1772 79.6755 10.8654C79.5805 10.5301 79.5193 10.1901 79.5193 9.94096C79.5193 8.79804 80.3744 8.11974 81.3049 8.11974H82.9966Z" fill="#3D3D3D"/>
<path d="M126.843 19.0625L126.898 19.0348C127.792 18.3293 128.499 17.3918 128.9 16.2938C128.9 16.2566 128.928 16.2259 128.937 16.1887C128.972 16.0907 129.01 16.0246 129.028 15.929C129.065 15.7814 129.095 15.6539 129.127 15.5027C129.143 15.4596 129.155 15.4136 129.159 15.3935C129.181 15.2105 129.222 15.0322 129.246 14.841C129.246 14.841 129.246 14.8333 129.246 14.8162C129.266 14.6314 129.266 14.4378 129.266 14.25C129.266 14.2471 129.266 14.2299 129.266 14.2105C129.266 10.8596 126.532 8.11865 123.148 8.11865H117.014C116.3 8.11865 115.714 8.70782 115.714 9.41683C115.714 9.41683 115.714 24.6844 115.714 25.103C116.072 25.103 118.448 25.103 118.448 25.103C119.171 25.103 119.734 24.5339 119.734 23.8042V20.029H122.939C122.939 20.029 124.654 23.0014 124.989 23.5457C125.521 24.3964 126.469 25.103 127.546 25.103C128.675 25.103 130.009 25.103 130.368 25.103C130.022 24.5498 126.843 19.0625 126.843 19.0625ZM122.894 16.3723H119.734V11.8331H122.894C124.151 11.8331 125.173 12.8468 125.173 14.0959C125.173 15.3451 124.151 16.3635 122.894 16.3635V16.3723Z" fill="#3D3D3D"/>
<path d="M30.9267 15.3567C30.9267 23.8542 24.0042 30.7495 15.4725 30.7495C6.93019 30.7495 0 23.8542 0 15.3567C0 6.87107 6.93019 0 15.4725 0C24.0048 0 30.9267 6.87166 30.9267 15.3567ZM15.4725 7.18394C10.9146 7.18394 7.23006 10.853 7.23006 15.3567C7.23006 19.8912 10.9146 23.5407 15.4725 23.5407C20.0097 23.5407 23.6889 19.8912 23.6889 15.3567C23.6889 10.853 20.0097 7.18394 15.4725 7.18394Z" fill="#F37124"/>
<path d="M10.0417 11.3955V13.463C10.0417 13.8154 10.319 14.0946 10.689 14.0946C11.028 14.0946 11.3077 13.8148 11.3077 13.463V11.3955C11.3077 11.0449 11.028 10.7556 10.689 10.7556C10.319 10.7556 10.0417 11.0449 10.0417 11.3955Z" fill="#F37124"/>
<path d="M19.4866 11.3955V13.463C19.4866 13.8154 19.7882 14.0946 20.1326 14.0946C20.4966 14.0946 20.7781 13.8148 20.7781 13.463V11.3955C20.7781 11.0449 20.496 10.7556 20.1326 10.7556C19.7882 10.7556 19.4866 11.0449 19.4866 11.3955Z" fill="#F37124"/>
<path d="M17.5768 16.0912C17.5768 17.3805 16.5323 18.4106 15.245 18.4106C13.9642 18.4106 12.9238 17.3805 12.9238 16.0912C12.9238 15.7494 12.6329 15.4601 12.2831 15.4601C11.9185 15.4601 11.6365 15.7494 11.6365 16.0912C11.6365 18.0576 13.2605 19.6799 15.245 19.6799C17.2389 19.6799 18.8517 18.0576 18.8517 16.0912C18.8517 15.7494 18.5655 15.4601 18.2033 15.4601C17.8476 15.4601 17.5768 15.7494 17.5768 16.0912Z" fill="#F37124"/>
<path d="M14.9714 11.6522L13.4952 13.1275C13.3795 13.2385 13.3159 13.3996 13.3159 13.572C13.3159 13.7444 13.3789 13.9026 13.4952 14.0254L14.9714 15.4912C15.2238 15.7486 15.6216 15.7486 15.8829 15.4912C15.9987 15.3655 16.0622 15.2096 16.0622 15.0473C16.0622 14.8897 15.9987 14.7102 15.8829 14.5945C15.8829 14.5945 15.2885 14.0071 14.858 13.572C15.2885 13.1399 15.8829 12.5584 15.8829 12.5584C15.9987 12.4291 16.0622 12.2579 16.0622 12.1014C16.0622 11.932 15.9987 11.7856 15.8829 11.6522C15.6311 11.4125 15.2238 11.4125 14.9714 11.6522Z" fill="#F37124"/>
</svg>
